<?xml version="1.0" standalone="no"?>
<!DOCTYPE svg PUBLIC "-//W3C//DTD SVG 20010904//EN"
 "http://www.w3.org/TR/2001/REC-SVG-20010904/DTD/svg10.dtd">
<svg version="1.0" xmlns="http://www.w3.org/2000/svg"
 width="800.000000pt" height="800.000000pt" viewBox="0 0 800.000000 800.000000"
 preserveAspectRatio="xMidYMid meet">

<g transform="translate(0.000000,800.000000) scale(0.100000,-0.100000)"
fill="#000000" stroke="none">
<path d="M640 7436 c-30 -6 -78 -25 -107 -40 -162 -89 -383 -319 -480 -501
l-38 -70 -6 -640 c-15 -1541 -8 -3705 13 -3705 12 0 37 29 108 126 180 248
310 331 530 338 280 10 403 -37 604 -233 184 -179 331 -361 847 -1048 419
-557 491 -645 694 -848 232 -232 363 -331 585 -444 231 -117 267 -124 625
-125 271 -1 318 4 440 47 219 76 537 308 810 588 158 163 270 300 546 674 484
654 699 924 894 1120 197 198 290 251 475 266 197 16 337 -8 445 -79 75 -49
178 -158 274 -290 41 -56 80 -102 88 -102 11 0 13 377 12 2188 0 1203 -3 2181
-6 2174 -3 -8 -18 12 -35 45 -55 105 -120 194 -211 290 -164 171 -304 256
-443 268 -157 13 -279 -24 -453 -139 -145 -94 -368 -322 -725 -741 -298 -349
-380 -440 -561 -623 -534 -543 -861 -768 -1260 -868 -153 -39 -381 -45 -536
-14 -204 40 -422 130 -602 247 -301 195 -701 574 -1105 1047 -414 484 -720
810 -870 927 -137 107 -209 143 -326 164 -103 18 -150 18 -226 1z"/>
</g>
</svg>
